<svg xmlns="http://www.w3.org/2000/svg" viewBox="0 0 2560 2560" width="2560" height="2560">
<rect width="100%" height="100%" fill="#000"/>
<path d="M 1672 1580 L 1668 1580 L 1667 1588 L 1664 1593 L 1667 1598 L 1667 1593 L 1670 1591 L 1672 1586 Z M 1029 1579 L 1025 1583 L 1021 1598 L 1027 1594 L 1027 1589 L 1031 1584 L 1031 1580 Z M 2172 1536 L 2168 1542 L 2167 1550 L 2156 1575 L 2155 1582 L 2153 1584 L 2154 1587 L 2159 1585 L 2160 1578 L 2163 1575 L 2186 1575 L 2191 1586 L 2195 1587 L 2196 1584 L 2192 1578 L 2183 1549 L 2179 1543 L 2178 1537 Z M 2172 1546 L 2176 1546 L 2180 1560 L 2184 1565 L 2184 1569 L 2182 1571 L 2165 1570 Z M 1793 1536 L 1788 1537 L 1788 1586 L 1790 1587 L 1794 1584 Z M 1509 1536 L 1504 1543 L 1503 1551 L 1499 1557 L 1495 1572 L 1492 1576 L 1490 1587 L 1495 1586 L 1496 1580 L 1500 1575 L 1523 1576 L 1529 1587 L 1532 1586 L 1520 1555 L 1519 1548 L 1515 1543 L 1515 1538 L 1513 1536 Z M 1508 1547 L 1511 1546 L 1515 1551 L 1516 1559 L 1520 1565 L 1520 1569 L 1518 1571 L 1501 1570 Z M 1402 1536 L 1397 1537 L 1398 1587 L 1403 1586 Z M 1180 1537 L 1163 1582 L 1163 1587 L 1167 1586 L 1173 1575 L 1194 1575 L 1200 1586 L 1205 1585 L 1186 1536 Z M 1182 1547 L 1187 1549 L 1193 1567 L 1192 1571 L 1174 1570 L 1176 1560 Z M 1084 1537 L 1084 1585 L 1086 1587 L 1091 1586 L 1092 1554 L 1096 1556 L 1097 1562 L 1109 1587 L 1115 1586 L 1127 1558 L 1129 1556 L 1132 1557 L 1133 1587 L 1139 1586 L 1139 1536 L 1129 1537 L 1120 1557 L 1120 1561 L 1113 1573 L 1108 1571 L 1107 1565 L 1094 1536 Z M 982 1536 L 980 1538 L 980 1543 L 976 1548 L 968 1575 L 963 1583 L 964 1587 L 967 1587 L 973 1575 L 995 1575 L 999 1579 L 1001 1587 L 1006 1585 L 999 1570 L 996 1557 L 992 1551 L 991 1543 L 986 1536 Z M 984 1546 L 987 1547 L 988 1553 L 991 1557 L 992 1565 L 994 1567 L 993 1571 L 975 1570 L 975 1565 L 979 1559 L 980 1551 Z M 939 1536 L 935 1537 L 936 1587 L 939 1587 L 940 1585 Z M 705 1537 L 705 1586 L 728 1584 L 711 1583 L 711 1538 L 710 1536 Z M 2284 1536 L 2283 1554 L 2285 1587 L 2310 1584 L 2289 1583 L 2288 1565 L 2290 1563 L 2308 1561 L 2306 1559 L 2290 1559 L 2288 1557 L 2288 1541 L 2290 1539 L 2311 1538 L 2311 1536 Z M 2218 1536 L 2217 1585 L 2219 1587 L 2243 1587 L 2251 1583 L 2260 1571 L 2260 1552 L 2255 1543 L 2245 1536 Z M 2225 1539 L 2245 1540 L 2255 1551 L 2255 1571 L 2249 1579 L 2242 1583 L 2225 1584 L 2223 1582 L 2222 1542 Z M 2090 1536 L 2089 1585 L 2091 1587 L 2115 1587 L 2123 1583 L 2132 1571 L 2132 1552 L 2127 1543 L 2117 1536 Z M 2097 1539 L 2117 1540 L 2127 1551 L 2127 1571 L 2121 1579 L 2114 1583 L 2097 1584 L 2095 1582 L 2094 1542 Z M 2061 1535 L 2059 1536 L 2060 1587 L 2063 1586 L 2063 1536 Z M 2004 1535 L 2002 1537 L 2002 1586 L 2007 1586 L 2007 1568 L 2009 1566 L 2015 1566 L 2020 1570 L 2028 1586 L 2030 1587 L 2035 1585 L 2023 1567 L 2024 1564 L 2030 1562 L 2035 1555 L 2035 1546 L 2033 1541 L 2024 1535 Z M 2009 1539 L 2024 1539 L 2028 1542 L 2031 1552 L 2025 1560 L 2009 1561 L 2007 1559 L 2007 1541 Z M 1954 1535 L 1952 1537 L 1953 1587 L 1978 1584 L 1960 1584 L 1956 1581 L 1956 1566 L 1959 1563 L 1976 1562 L 1974 1559 L 1959 1559 L 1956 1556 L 1956 1542 L 1959 1539 L 1979 1538 L 1979 1536 Z M 1819 1535 L 1817 1537 L 1816 1585 L 1818 1587 L 1822 1586 L 1823 1548 L 1827 1549 L 1836 1565 L 1848 1581 L 1849 1585 L 1851 1587 L 1856 1586 L 1856 1536 L 1852 1536 L 1851 1576 L 1849 1576 L 1823 1536 Z M 1736 1536 L 1728 1544 L 1729 1556 L 1738 1563 L 1744 1563 L 1752 1567 L 1756 1571 L 1756 1575 L 1752 1580 L 1740 1580 L 1734 1573 L 1730 1573 L 1728 1578 L 1736 1586 L 1744 1588 L 1754 1587 L 1762 1580 L 1764 1569 L 1756 1560 L 1739 1555 L 1736 1551 L 1736 1546 L 1739 1543 L 1746 1541 L 1761 1549 L 1763 1544 L 1755 1536 Z M 1620 1536 L 1621 1587 L 1646 1584 L 1629 1584 L 1624 1580 L 1624 1566 L 1627 1563 L 1644 1562 L 1643 1559 L 1625 1558 L 1625 1541 L 1627 1539 L 1647 1538 L 1646 1535 Z M 1556 1535 L 1554 1537 L 1554 1586 L 1579 1587 L 1587 1583 L 1596 1572 L 1597 1561 L 1595 1548 L 1588 1540 L 1581 1536 Z M 1561 1539 L 1579 1539 L 1591 1550 L 1591 1572 L 1585 1579 L 1576 1584 L 1561 1584 L 1559 1582 L 1559 1541 Z M 1428 1536 L 1429 1587 L 1453 1587 L 1462 1583 L 1467 1578 L 1471 1570 L 1471 1553 L 1467 1545 L 1456 1536 Z M 1435 1539 L 1455 1540 L 1463 1547 L 1467 1556 L 1467 1567 L 1461 1578 L 1452 1583 L 1437 1584 L 1432 1580 L 1432 1542 Z M 1341 1536 L 1341 1587 L 1345 1586 L 1346 1582 L 1345 1569 L 1350 1566 L 1357 1568 L 1369 1587 L 1373 1587 L 1373 1584 L 1363 1569 L 1363 1565 L 1372 1558 L 1375 1552 L 1372 1542 L 1363 1535 Z M 1348 1539 L 1362 1539 L 1367 1543 L 1369 1553 L 1364 1560 L 1357 1562 L 1348 1561 L 1345 1558 L 1345 1542 Z M 1279 1536 L 1280 1578 L 1289 1587 L 1306 1587 L 1316 1577 L 1316 1536 L 1312 1536 L 1312 1574 L 1311 1577 L 1302 1584 L 1291 1583 L 1284 1576 L 1282 1535 Z M 1224 1536 L 1225 1539 L 1235 1539 L 1238 1542 L 1238 1586 L 1243 1586 L 1243 1541 L 1245 1539 L 1256 1539 L 1258 1537 L 1255 1535 Z M 800 1536 L 799 1585 L 801 1587 L 805 1584 L 804 1551 L 805 1547 L 807 1547 L 835 1587 L 840 1586 L 840 1537 L 837 1535 L 835 1537 L 834 1575 L 831 1574 L 824 1565 L 823 1561 L 812 1547 L 806 1536 Z M 751 1536 L 750 1585 L 752 1587 L 776 1584 L 757 1584 L 755 1582 L 755 1565 L 757 1563 L 775 1563 L 774 1559 L 757 1559 L 755 1557 L 755 1541 L 757 1539 L 777 1537 L 775 1535 Z M 657 1535 L 655 1537 L 656 1587 L 682 1587 L 682 1584 L 662 1584 L 660 1582 L 660 1565 L 662 1563 L 680 1561 L 678 1559 L 662 1559 L 660 1557 L 660 1541 L 662 1539 L 682 1539 L 681 1535 Z M 527 1536 L 528 1542 L 540 1559 L 539 1565 L 527 1582 L 527 1587 L 531 1587 L 540 1569 L 544 1568 L 557 1587 L 561 1585 L 547 1564 L 547 1558 L 560 1539 L 559 1535 L 555 1537 L 545 1554 L 540 1552 L 530 1535 Z M 475 1537 L 476 1587 L 503 1586 L 502 1580 L 485 1580 L 483 1578 L 483 1566 L 485 1564 L 498 1564 L 502 1562 L 500 1558 L 486 1558 L 483 1555 L 483 1544 L 485 1542 L 499 1543 L 503 1541 L 503 1536 L 484 1535 Z M 1893 1536 L 1885 1542 L 1880 1550 L 1880 1572 L 1887 1582 L 1895 1587 L 1914 1587 L 1926 1578 L 1927 1576 L 1925 1572 L 1912 1583 L 1896 1583 L 1888 1577 L 1884 1569 L 1883 1556 L 1888 1546 L 1897 1539 L 1912 1539 L 1924 1550 L 1927 1549 L 1926 1544 L 1913 1535 L 1901 1534 Z M 879 1535 L 870 1540 L 864 1548 L 862 1556 L 864 1574 L 871 1583 L 878 1587 L 897 1587 L 909 1578 L 909 1573 L 905 1574 L 900 1580 L 893 1584 L 879 1583 L 872 1578 L 868 1571 L 867 1554 L 871 1546 L 880 1539 L 895 1539 L 899 1541 L 907 1550 L 910 1549 L 910 1546 L 899 1536 L 891 1534 Z M 599 1535 L 592 1539 L 584 1549 L 582 1558 L 584 1574 L 593 1584 L 599 1587 L 618 1587 L 630 1578 L 630 1573 L 625 1574 L 624 1577 L 616 1583 L 600 1583 L 592 1578 L 588 1570 L 588 1552 L 591 1546 L 600 1539 L 616 1539 L 627 1550 L 630 1550 L 630 1545 L 617 1535 Z M 771 1527 L 770 1524 L 761 1521 L 756 1524 L 753 1530 L 760 1526 L 768 1528 Z M 2244 1323 L 2241 1326 L 2244 1329 L 2243 1348 L 2236 1371 L 2236 1379 L 2232 1387 L 2232 1395 L 2224 1423 L 2224 1430 L 2220 1439 L 2220 1448 L 2216 1457 L 2212 1476 L 2204 1485 L 2234 1484 L 2230 1479 L 2231 1461 L 2240 1448 L 2249 1444 L 2262 1444 L 2272 1449 L 2272 1463 L 2275 1471 L 2275 1477 L 2271 1484 L 2273 1486 L 2307 1486 L 2309 1485 L 2303 1479 L 2300 1472 L 2297 1455 L 2298 1450 L 2307 1441 L 2307 1431 L 2300 1423 L 2293 1426 L 2291 1424 L 2287 1391 L 2283 1380 L 2283 1367 L 2279 1357 L 2277 1330 L 2280 1327 L 2280 1324 Z M 2253 1370 L 2257 1371 L 2260 1380 L 2260 1392 L 2263 1400 L 2268 1431 L 2266 1435 L 2253 1434 L 2242 1437 L 2239 1436 L 2239 1428 L 2243 1418 L 2243 1408 L 2246 1404 L 2248 1388 L 2251 1382 L 2251 1374 Z M 2159 1323 L 2157 1326 L 2161 1330 L 2162 1339 L 2162 1471 L 2161 1478 L 2157 1483 L 2158 1486 L 2194 1484 L 2188 1477 L 2187 1471 L 2187 1337 L 2188 1331 L 2193 1324 Z M 2041 1324 L 2045 1330 L 2046 1340 L 2046 1467 L 2045 1477 L 2041 1483 L 2042 1486 L 2077 1486 L 2077 1483 L 2072 1477 L 2071 1473 L 2071 1441 L 2073 1439 L 2078 1439 L 2092 1457 L 2103 1476 L 2102 1484 L 2104 1486 L 2139 1486 L 2139 1484 L 2127 1474 L 2108 1442 L 2105 1440 L 2104 1436 L 2117 1428 L 2128 1417 L 2135 1406 L 2139 1392 L 2139 1368 L 2131 1349 L 2120 1336 L 2100 1324 Z M 2080 1331 L 2086 1335 L 2092 1336 L 2107 1350 L 2115 1368 L 2115 1392 L 2108 1409 L 2099 1419 L 2086 1428 L 2073 1429 L 2071 1427 L 2071 1333 L 2073 1331 Z M 1959 1323 L 1957 1326 L 1960 1329 L 1960 1339 L 1956 1352 L 1956 1359 L 1952 1367 L 1952 1377 L 1948 1386 L 1944 1410 L 1940 1419 L 1940 1430 L 1936 1437 L 1935 1449 L 1928 1475 L 1922 1481 L 1922 1486 L 1949 1484 L 1945 1477 L 1947 1461 L 1953 1451 L 1966 1444 L 1977 1444 L 1987 1449 L 1990 1477 L 1987 1482 L 1988 1486 L 2024 1486 L 2016 1474 L 2015 1461 L 2012 1455 L 2014 1449 L 2020 1446 L 2023 1439 L 2023 1433 L 2016 1423 L 2012 1424 L 2010 1429 L 2007 1428 L 2007 1417 L 2003 1404 L 2003 1391 L 1999 1382 L 1998 1365 L 1992 1338 L 1992 1330 L 1996 1324 Z M 1972 1369 L 1976 1383 L 1976 1396 L 1980 1404 L 1980 1415 L 1984 1433 L 1982 1435 L 1970 1434 L 1958 1437 L 1954 1436 L 1956 1422 L 1958 1419 L 1959 1408 L 1963 1399 L 1963 1389 L 1967 1381 L 1968 1369 Z M 1829 1324 L 1835 1337 L 1835 1472 L 1829 1483 L 1830 1486 L 1906 1486 L 1908 1485 L 1905 1465 L 1905 1446 L 1908 1432 L 1907 1428 L 1902 1428 L 1900 1430 L 1896 1452 L 1892 1463 L 1883 1474 L 1879 1476 L 1861 1476 L 1859 1474 L 1859 1436 L 1861 1434 L 1872 1434 L 1883 1438 L 1882 1417 L 1873 1424 L 1861 1424 L 1859 1422 L 1859 1333 L 1861 1331 L 1877 1331 L 1884 1336 L 1886 1341 L 1883 1366 L 1884 1381 L 1889 1387 L 1903 1387 L 1907 1382 L 1907 1377 L 1902 1373 L 1898 1376 L 1895 1375 L 1895 1367 L 1899 1359 L 1900 1349 L 1903 1346 L 1907 1325 L 1905 1323 Z M 1715 1323 L 1713 1325 L 1718 1330 L 1720 1338 L 1719 1475 L 1713 1486 L 1768 1486 L 1790 1479 L 1802 1468 L 1811 1452 L 1812 1447 L 1811 1422 L 1804 1409 L 1789 1395 L 1789 1393 L 1795 1388 L 1802 1378 L 1806 1366 L 1803 1347 L 1799 1340 L 1791 1332 L 1778 1324 Z M 1745 1399 L 1757 1400 L 1772 1407 L 1783 1419 L 1788 1430 L 1788 1446 L 1784 1452 L 1784 1456 L 1774 1468 L 1758 1476 L 1745 1476 L 1743 1474 L 1743 1401 Z M 1758 1331 L 1766 1335 L 1775 1343 L 1780 1353 L 1780 1371 L 1775 1381 L 1769 1387 L 1745 1392 L 1743 1390 L 1743 1333 L 1745 1331 Z M 1595 1324 L 1600 1331 L 1600 1477 L 1593 1486 L 1631 1486 L 1631 1483 L 1626 1477 L 1625 1442 L 1626 1440 L 1632 1439 L 1644 1453 L 1656 1473 L 1656 1482 L 1658 1486 L 1694 1486 L 1692 1482 L 1684 1477 L 1659 1439 L 1659 1436 L 1662 1433 L 1673 1427 L 1683 1417 L 1690 1405 L 1692 1393 L 1695 1387 L 1695 1374 L 1688 1353 L 1683 1345 L 1671 1333 L 1654 1324 Z M 1628 1331 L 1645 1335 L 1656 1344 L 1667 1361 L 1670 1377 L 1668 1396 L 1659 1414 L 1641 1428 L 1629 1429 L 1625 1425 L 1625 1334 Z M 1513 1323 L 1512 1327 L 1515 1329 L 1515 1337 L 1512 1344 L 1511 1356 L 1508 1362 L 1508 1369 L 1504 1377 L 1504 1387 L 1500 1395 L 1496 1420 L 1492 1430 L 1492 1440 L 1488 1447 L 1484 1470 L 1474 1486 L 1502 1486 L 1499 1479 L 1499 1471 L 1503 1457 L 1512 1447 L 1519 1444 L 1532 1444 L 1539 1447 L 1544 1460 L 1544 1479 L 1541 1483 L 1542 1486 L 1578 1486 L 1578 1483 L 1571 1475 L 1567 1461 L 1567 1452 L 1575 1444 L 1578 1435 L 1575 1428 L 1570 1423 L 1567 1424 L 1567 1432 L 1563 1431 L 1563 1422 L 1560 1418 L 1559 1403 L 1555 1390 L 1555 1377 L 1551 1368 L 1550 1352 L 1547 1344 L 1547 1329 L 1550 1326 L 1549 1323 Z M 1524 1366 L 1528 1367 L 1528 1382 L 1532 1391 L 1532 1402 L 1538 1432 L 1535 1435 L 1523 1434 L 1512 1437 L 1508 1436 L 1508 1432 L 1511 1426 L 1512 1415 L 1515 1410 L 1515 1399 L 1519 1391 Z M 1367 1323 L 1365 1326 L 1369 1330 L 1371 1339 L 1371 1470 L 1365 1486 L 1420 1486 L 1432 1483 L 1443 1478 L 1451 1471 L 1459 1460 L 1463 1451 L 1462 1421 L 1455 1408 L 1441 1396 L 1441 1391 L 1443 1391 L 1451 1383 L 1455 1376 L 1457 1368 L 1455 1348 L 1444 1333 L 1429 1324 Z M 1398 1399 L 1406 1399 L 1425 1408 L 1434 1419 L 1440 1432 L 1440 1445 L 1436 1451 L 1435 1457 L 1426 1468 L 1410 1476 L 1397 1476 L 1395 1474 L 1395 1402 Z M 1409 1331 L 1418 1335 L 1428 1345 L 1432 1354 L 1432 1369 L 1428 1379 L 1421 1387 L 1397 1392 L 1395 1390 L 1395 1333 L 1397 1331 Z M 395 1293 L 389 1295 L 370 1311 L 361 1313 L 358 1321 L 364 1332 L 379 1348 L 417 1396 L 422 1397 L 454 1369 L 455 1364 L 453 1364 L 426 1387 L 423 1386 L 425 1381 L 449 1362 L 449 1360 L 444 1361 L 437 1368 L 432 1367 L 432 1365 L 443 1356 L 443 1353 L 440 1353 L 438 1357 L 419 1372 L 415 1371 L 417 1367 L 435 1352 L 439 1351 L 437 1347 L 433 1352 L 429 1353 L 417 1364 L 413 1363 L 416 1358 L 432 1346 L 434 1341 L 428 1344 L 420 1352 L 415 1351 L 417 1347 L 428 1339 L 428 1336 L 424 1336 L 422 1340 L 413 1347 L 409 1348 L 407 1352 L 403 1351 L 404 1347 L 408 1346 L 413 1340 L 422 1334 L 423 1332 L 421 1329 L 400 1347 L 395 1347 L 396 1344 L 419 1327 L 417 1323 L 402 1336 L 398 1335 L 398 1333 L 414 1319 L 412 1317 L 389 1336 L 385 1335 L 386 1332 L 394 1327 L 396 1323 L 409 1313 L 404 1312 L 404 1314 L 392 1324 L 387 1323 L 389 1319 L 391 1319 L 399 1311 L 403 1310 L 403 1305 L 401 1305 L 395 1312 L 379 1324 L 375 1323 L 377 1319 L 399 1303 L 399 1300 L 396 1300 L 372 1320 L 368 1319 L 368 1317 L 377 1311 L 379 1307 L 392 1298 Z M 418 1376 L 423 1376 L 422 1380 L 417 1379 Z M 433 1368 L 427 1376 L 423 1375 L 424 1371 L 427 1371 L 429 1367 Z M 408 1364 L 414 1364 L 414 1366 L 412 1368 L 407 1367 Z M 416 1352 L 416 1354 L 407 1362 L 403 1362 L 404 1358 L 412 1351 Z M 398 1353 L 400 1351 L 404 1352 L 403 1356 L 398 1355 Z M 388 1340 L 393 1340 L 392 1344 L 387 1343 Z M 393 1336 L 399 1336 L 399 1338 L 397 1340 L 392 1339 Z M 384 1323 L 388 1324 L 387 1328 L 385 1329 L 382 1328 Z M 419 1176 L 412 1181 L 411 1185 L 341 1283 L 338 1291 L 332 1289 L 328 1292 L 312 1292 L 303 1300 L 295 1303 L 267 1298 L 255 1301 L 248 1308 L 248 1328 L 261 1339 L 279 1339 L 281 1342 L 285 1342 L 291 1331 L 313 1311 L 319 1307 L 330 1305 L 336 1300 L 339 1301 L 340 1320 L 336 1326 L 336 1329 L 328 1342 L 312 1358 L 305 1370 L 305 1387 L 308 1394 L 316 1401 L 316 1412 L 319 1419 L 323 1423 L 328 1422 L 327 1418 L 323 1414 L 323 1409 L 333 1400 L 338 1399 L 346 1386 L 346 1374 L 340 1354 L 344 1345 L 352 1336 L 351 1320 L 359 1305 L 359 1301 L 361 1299 L 366 1302 L 390 1283 L 471 1227 L 471 1224 L 467 1224 L 455 1232 L 418 1248 L 397 1260 L 393 1260 L 389 1264 L 383 1265 L 378 1272 L 375 1271 L 375 1266 L 378 1264 L 387 1242 L 391 1237 L 392 1231 L 395 1228 L 399 1216 L 402 1214 L 403 1208 Z M 323 1359 L 331 1360 L 336 1366 L 336 1371 L 338 1374 L 335 1388 L 326 1395 L 317 1391 L 311 1381 L 311 1375 L 315 1367 Z M 264 1307 L 280 1306 L 284 1308 L 289 1315 L 288 1322 L 276 1332 L 264 1331 L 255 1323 L 256 1314 Z M 348 1288 L 353 1289 L 352 1293 L 347 1293 Z M 372 1281 L 372 1286 L 369 1289 L 367 1296 L 363 1295 L 363 1291 L 367 1288 L 368 1281 Z M 372 1273 L 376 1275 L 374 1280 L 371 1279 Z M 295 1177 L 264 1200 L 264 1208 L 276 1221 L 276 1223 L 324 1283 L 333 1283 L 339 1277 L 335 1274 L 336 1270 L 340 1270 L 341 1267 L 346 1266 L 347 1263 L 351 1261 L 348 1258 L 349 1254 L 353 1254 L 354 1251 L 358 1249 L 345 1233 L 342 1238 L 339 1237 L 339 1233 L 343 1231 L 338 1223 L 332 1223 L 329 1212 L 327 1214 L 324 1213 L 322 1205 L 317 1202 L 315 1196 L 307 1188 L 303 1180 L 299 1176 Z M 337 1259 L 340 1260 L 339 1265 L 335 1264 Z M 329 1259 L 332 1260 L 331 1266 L 327 1265 L 327 1261 Z M 340 1254 L 344 1255 L 343 1260 L 339 1259 Z M 322 1256 L 324 1254 L 328 1255 L 327 1259 L 322 1258 Z M 345 1248 L 348 1249 L 346 1254 L 343 1253 Z M 336 1248 L 340 1249 L 338 1254 L 335 1253 Z M 321 1247 L 324 1248 L 323 1252 L 319 1252 Z M 348 1243 L 352 1245 L 351 1249 L 347 1248 Z M 332 1242 L 336 1244 L 334 1248 L 331 1247 Z M 325 1241 L 328 1242 L 327 1248 L 323 1247 L 323 1243 Z M 316 1242 L 320 1242 L 318 1247 L 315 1246 Z M 333 1231 L 336 1232 L 334 1237 L 331 1236 Z M 324 1230 L 328 1231 L 327 1236 L 323 1235 Z M 308 1229 L 312 1229 L 310 1235 L 307 1234 Z M 300 1228 L 304 1229 L 303 1235 L 299 1234 Z M 324 1219 L 328 1220 L 328 1224 L 326 1226 L 323 1225 Z M 317 1218 L 320 1219 L 319 1225 L 315 1224 L 315 1220 Z M 309 1217 L 312 1218 L 312 1223 L 310 1225 L 307 1224 L 307 1219 Z M 301 1217 L 304 1218 L 303 1224 L 299 1223 L 299 1219 Z M 305 1212 L 308 1213 L 307 1218 L 303 1217 Z M 309 1206 L 312 1207 L 312 1211 L 310 1213 L 307 1212 L 307 1208 Z M 300 1206 L 304 1207 L 303 1213 L 299 1212 Z M 293 1206 L 296 1207 L 296 1211 L 294 1213 L 291 1212 L 291 1208 Z M 285 1204 L 288 1205 L 287 1212 L 282 1211 Z M 308 1195 L 312 1197 L 310 1201 L 307 1200 Z M 300 1195 L 304 1196 L 303 1201 L 299 1200 Z M 293 1195 L 296 1196 L 294 1201 L 291 1200 Z M 284 1194 L 288 1195 L 288 1199 L 286 1201 L 283 1200 Z M 292 1186 L 299 1190 L 298 1195 L 291 1189 Z M 300 1184 L 304 1185 L 302 1190 L 299 1189 Z M 718 1105 L 715 1117 L 724 1131 L 724 1137 L 728 1144 L 731 1168 L 731 1424 L 728 1444 L 724 1452 L 724 1458 L 715 1471 L 718 1482 L 807 1483 L 811 1477 L 811 1469 L 807 1466 L 799 1448 L 799 1436 L 795 1420 L 796 1261 L 800 1262 L 808 1284 L 824 1313 L 836 1342 L 840 1346 L 840 1350 L 852 1372 L 861 1394 L 864 1397 L 865 1403 L 873 1405 L 897 1405 L 902 1402 L 904 1394 L 915 1374 L 923 1354 L 927 1349 L 927 1345 L 962 1273 L 963 1267 L 967 1265 L 969 1267 L 968 1440 L 964 1447 L 964 1454 L 960 1460 L 960 1463 L 952 1474 L 958 1483 L 1047 1482 L 1051 1472 L 1044 1463 L 1039 1452 L 1035 1430 L 1035 1156 L 1039 1142 L 1039 1135 L 1051 1117 L 1046 1104 L 952 1105 L 948 1113 L 951 1131 L 944 1160 L 940 1165 L 932 1186 L 929 1189 L 923 1205 L 916 1217 L 916 1221 L 905 1241 L 904 1247 L 901 1250 L 892 1272 L 884 1286 L 880 1284 L 871 1262 L 863 1249 L 863 1245 L 855 1231 L 851 1219 L 847 1214 L 843 1202 L 823 1161 L 816 1135 L 818 1112 L 814 1104 Z M 1007 1421 L 1008 1425 L 1006 1428 L 999 1428 L 999 1423 L 1004 1420 Z M 764 1235 L 768 1235 L 768 1240 L 766 1242 L 763 1241 Z M 774 1202 L 778 1203 L 778 1208 L 774 1207 Z M 480 1104 L 476 1110 L 475 1117 L 480 1122 L 487 1139 L 492 1179 L 491 1428 L 484 1458 L 475 1472 L 476 1478 L 479 1482 L 663 1482 L 663 1477 L 666 1473 L 667 1462 L 671 1455 L 671 1448 L 675 1439 L 679 1418 L 683 1411 L 682 1405 L 672 1401 L 670 1404 L 657 1411 L 648 1412 L 641 1416 L 608 1418 L 556 1416 L 555 1414 L 556 1324 L 640 1322 L 643 1316 L 643 1309 L 647 1303 L 651 1280 L 655 1272 L 655 1263 L 649 1256 L 557 1256 L 555 1254 L 555 1173 L 559 1170 L 630 1171 L 655 1179 L 667 1187 L 676 1182 L 675 1161 L 671 1143 L 671 1127 L 666 1104 Z M 524 1439 L 526 1439 L 531 1445 L 530 1448 L 523 1444 Z M 528 1405 L 532 1406 L 531 1415 L 525 1412 L 525 1407 Z M 522 1387 L 526 1387 L 528 1391 L 526 1393 L 522 1392 Z M 580 1289 L 584 1290 L 583 1295 L 579 1294 Z M 609 1142 L 613 1143 L 611 1148 L 607 1146 Z M 640 1135 L 644 1136 L 643 1144 L 639 1143 Z M 1186 1100 L 1163 1104 L 1156 1108 L 1148 1109 L 1126 1121 L 1104 1141 L 1092 1161 L 1085 1183 L 1085 1228 L 1088 1238 L 1096 1253 L 1108 1268 L 1130 1287 L 1149 1299 L 1223 1335 L 1246 1351 L 1259 1365 L 1260 1371 L 1264 1376 L 1264 1396 L 1259 1408 L 1246 1420 L 1222 1428 L 1197 1428 L 1189 1424 L 1182 1423 L 1166 1409 L 1162 1402 L 1166 1388 L 1157 1379 L 1139 1384 L 1132 1388 L 1126 1388 L 1122 1391 L 1115 1392 L 1095 1400 L 1089 1400 L 1083 1404 L 1079 1404 L 1074 1408 L 1073 1417 L 1095 1428 L 1126 1459 L 1158 1479 L 1183 1487 L 1234 1487 L 1253 1483 L 1275 1474 L 1292 1463 L 1310 1444 L 1323 1420 L 1323 1415 L 1327 1407 L 1329 1388 L 1327 1356 L 1323 1348 L 1323 1343 L 1303 1313 L 1280 1292 L 1225 1261 L 1219 1260 L 1214 1256 L 1191 1247 L 1172 1236 L 1157 1224 L 1148 1207 L 1148 1196 L 1151 1186 L 1160 1174 L 1166 1171 L 1169 1167 L 1193 1160 L 1215 1160 L 1233 1167 L 1249 1183 L 1248 1203 L 1252 1207 L 1263 1207 L 1270 1203 L 1275 1203 L 1295 1195 L 1301 1195 L 1307 1191 L 1324 1187 L 1332 1183 L 1339 1182 L 1340 1172 L 1339 1168 L 1332 1167 L 1317 1159 L 1285 1128 L 1251 1108 L 1245 1108 L 1239 1104 L 1232 1104 L 1221 1100 Z M 1277 1347 L 1284 1348 L 1284 1351 L 1282 1353 L 1278 1353 L 1276 1351 Z" fill="#fff" fill-rule="evenodd"/>
</svg>